<?xml version="1.0" standalone="no"?>
<!DOCTYPE svg PUBLIC "-//W3C//DTD SVG 20010904//EN"
 "http://www.w3.org/TR/2001/REC-SVG-20010904/DTD/svg10.dtd">
<svg version="1.0" xmlns="http://www.w3.org/2000/svg"
 width="100.000000pt" height="100.000000pt" viewBox="0 0 100.000000 100.000000"
 preserveAspectRatio="xMidYMid meet">
<metadata>
Created by potrace 1.15, written by Peter Selinger 2001-2017
</metadata>
<g transform="translate(0.000000,100.000000) scale(0.100000,-0.100000)"
fill="#000000" stroke="none">
<path d="M355 982 l-49 -17 -3 -330 c-2 -191 1 -344 7 -365 5 -20 21 -47 36
-61 25 -23 30 -24 235 -29 l209 -5 -35 -23 c-102 -71 -253 -99 -360 -67 -84
24 -124 47 -188 105 -174 159 -179 427 -11 610 38 41 52 65 56 93 3 28 0 37
-11 37 -24 0 -157 -143 -185 -199 -97 -190 -66 -416 78 -569 106 -113 217
-162 369 -162 113 0 192 24 281 85 51 34 156 145 156 165 0 3 -115 4 -256 2
-220 -3 -259 -1 -280 13 l-24 16 2 317 3 317 28 3 c24 3 27 7 27 43 0 45 -7
47 -85 21z"/>
<path d="M490 713 c0 -279 1 -291 21 -317 l20 -26 191 0 c165 0 189 -2 184
-15 -3 -8 -9 -22 -12 -30 -5 -12 2 -15 34 -15 39 0 41 1 56 47 30 88 44 82
-196 85 l-213 3 -3 239 -2 239 32 -7 c155 -31 294 -181 321 -349 12 -72 13
-72 46 -75 l34 -3 -5 68 c-18 227 -214 423 -440 441 l-68 5 0 -290z"/>
</g>
</svg>
